<?xml version="1.0" encoding="UTF-8" standalone="no"?>
<!DOCTYPE svg PUBLIC "-//W3C//DTD SVG 1.1//EN" "http://www.w3.org/Graphics/SVG/1.1/DTD/svg11.dtd">
<svg width="100%" height="100%" viewBox="0 0 236 48" version="1.1" xmlns="http://www.w3.org/2000/svg" xmlns:xlink="http://www.w3.org/1999/xlink" xml:space="preserve" xmlns:serif="http://www.serif.com/" style="fill-rule:evenodd;clip-rule:evenodd;stroke-linejoin:round;stroke-miterlimit:2;">
    <path d="M60,12C60,5.377 54.623,0 48,0L12,0C5.377,0 0,5.377 0,12L0,36C0,42.623 5.377,48 12,48L48,48C54.623,48 60,42.623 60,36L60,12ZM208.794,30.323L211.923,29.831C212.098,31.085 212.588,32.045 213.39,32.713C214.193,33.381 215.315,33.715 216.757,33.715C218.21,33.715 219.288,33.42 219.991,32.828C220.694,32.236 221.046,31.542 221.046,30.745C221.046,30.03 220.735,29.467 220.114,29.057C219.68,28.776 218.602,28.419 216.88,27.985C214.559,27.399 212.951,26.892 212.054,26.464C211.158,26.037 210.478,25.445 210.015,24.689C209.553,23.933 209.321,23.098 209.321,22.184C209.321,21.352 209.512,20.582 209.892,19.873C210.273,19.164 210.792,18.575 211.448,18.106C211.94,17.743 212.611,17.435 213.461,17.183C214.31,16.931 215.221,16.805 216.194,16.805C217.659,16.805 218.945,17.016 220.053,17.438C221.16,17.86 221.977,18.431 222.505,19.152C223.032,19.873 223.395,20.837 223.595,22.044L220.501,22.465C220.36,21.504 219.953,20.754 219.279,20.215C218.605,19.676 217.653,19.407 216.423,19.407C214.97,19.407 213.932,19.647 213.311,20.128C212.69,20.608 212.38,21.17 212.38,21.815C212.38,22.225 212.509,22.594 212.766,22.922C213.024,23.262 213.429,23.544 213.979,23.766C214.296,23.883 215.227,24.153 216.774,24.575C219.012,25.172 220.574,25.662 221.459,26.043C222.344,26.423 223.038,26.977 223.542,27.704C224.046,28.43 224.298,29.333 224.298,30.411C224.298,31.465 223.99,32.459 223.375,33.39C222.76,34.322 221.872,35.043 220.712,35.552C219.552,36.062 218.239,36.317 216.774,36.317C214.348,36.317 212.5,35.813 211.228,34.805C209.957,33.797 209.145,32.303 208.794,30.323ZM173.04,29.954L177.962,30.78C177.329,32.585 176.33,33.959 174.965,34.902C173.599,35.845 171.891,36.317 169.841,36.317C166.595,36.317 164.192,35.256 162.634,33.135C161.403,31.436 160.788,29.292 160.788,26.702C160.788,23.608 161.596,21.185 163.214,19.433C164.831,17.681 166.876,16.805 169.348,16.805C172.126,16.805 174.317,17.722 175.923,19.556C177.528,21.39 178.296,24.2 178.225,27.985L165.85,27.985C165.886,29.45 166.284,30.589 167.046,31.404C167.807,32.218 168.757,32.626 169.893,32.626C170.667,32.626 171.317,32.415 171.845,31.993C172.372,31.571 172.77,30.891 173.04,29.954ZM109.073,26.297C109.073,24.657 109.477,23.069 110.286,21.534C111.095,19.999 112.24,18.827 113.722,18.018C115.205,17.21 116.86,16.805 118.688,16.805C121.512,16.805 123.827,17.722 125.632,19.556C127.436,21.39 128.339,23.708 128.339,26.508C128.339,29.333 127.428,31.673 125.605,33.531C123.783,35.388 121.489,36.317 118.723,36.317C117.012,36.317 115.381,35.93 113.828,35.157C112.275,34.383 111.095,33.25 110.286,31.755C109.477,30.261 109.073,28.442 109.073,26.297ZM234.968,33.065L235.425,35.86C234.534,36.047 233.737,36.141 233.034,36.141C231.886,36.141 230.995,35.96 230.362,35.596C229.729,35.233 229.284,34.755 229.026,34.164C228.768,33.572 228.639,32.327 228.639,30.428L228.639,19.688L226.319,19.688L226.319,17.227L228.639,17.227L228.639,12.604L231.786,10.706L231.786,17.227L234.968,17.227L234.968,19.688L231.786,19.688L231.786,30.604C231.786,31.506 231.842,32.087 231.953,32.344C232.064,32.602 232.246,32.807 232.498,32.96C232.75,33.112 233.11,33.188 233.579,33.188C233.93,33.188 234.393,33.147 234.968,33.065ZM80.192,35.895L80.192,10.126L87.979,10.126L92.655,27.704L97.278,10.126L105.083,10.126L105.083,35.895L100.249,35.895L100.249,15.61L95.134,35.895L90.124,35.895L85.026,15.61L85.026,35.895L80.192,35.895ZM202.079,35.895L202.079,17.227L205.243,17.227L205.243,35.895L202.079,35.895ZM152.227,35.895L152.227,17.227L157.167,17.227L157.167,35.895L152.227,35.895ZM137.339,35.895L129.815,17.227L135.001,17.227L138.516,26.754L139.536,29.936C139.805,29.128 139.975,28.594 140.046,28.337C140.21,27.809 140.386,27.282 140.573,26.754L144.124,17.227L149.204,17.227L141.786,35.895L137.339,35.895ZM182.304,35.895L182.304,10.126L185.714,10.126L185.714,32.854L198.405,32.854L198.405,35.895L182.304,35.895ZM114.136,26.561C114.136,28.413 114.575,29.831 115.454,30.815C116.333,31.799 117.417,32.292 118.706,32.292C119.995,32.292 121.076,31.799 121.949,30.815C122.822,29.831 123.259,28.401 123.259,26.526C123.259,24.698 122.822,23.292 121.949,22.307C121.076,21.323 119.995,20.831 118.706,20.831C117.417,20.831 116.333,21.323 115.454,22.307C114.575,23.292 114.136,24.71 114.136,26.561ZM173.321,24.962C173.286,23.532 172.917,22.445 172.214,21.701C171.511,20.957 170.655,20.585 169.647,20.585C168.569,20.585 167.679,20.977 166.975,21.762C166.272,22.547 165.927,23.614 165.938,24.962L173.321,24.962ZM152.227,14.696L152.227,10.126L157.167,10.126L157.167,14.696L152.227,14.696ZM202.079,13.764L202.079,10.126L205.243,10.126L205.243,13.764L202.079,13.764Z" style="fill-rule:nonzero;"/>
    <g transform="matrix(3,0,0,2.25,-657,-401.25)">
        <path d="M227,185L233,189L227,193L227,185Z" style="fill:white;"/>
    </g>
</svg>
